<?xml version="1.0" standalone="no"?>
<!DOCTYPE svg PUBLIC "-//W3C//DTD SVG 20010904//EN"
 "http://www.w3.org/TR/2001/REC-SVG-20010904/DTD/svg10.dtd">
<svg version="1.0" xmlns="http://www.w3.org/2000/svg"
 width="5000.000000pt" height="5000.000000pt" viewBox="0 0 5000.000000 5000.000000"
 preserveAspectRatio="xMidYMid meet">
<metadata>
Created by potrace 1.16, written by Peter Selinger 2001-2019
</metadata>
<g transform="translate(0.000000,5000.000000) scale(0.100000,-0.100000)"
fill="#000000" stroke="none">
<path d="M9015 37844 c-498 -39 -899 -165 -1308 -411 -319 -192 -638 -484
-880 -807 -61 -81 -65 -90 -50 -101 19 -13 208 -125 986 -589 1183 -705 1505
-897 1722 -1026 127 -76 795 -474 1485 -885 1623 -967 2446 -1458 2965 -1767
143 -85 485 -289 760 -453 275 -164 721 -429 990 -590 270 -160 715 -426 990
-590 275 -164 604 -359 730 -435 127 -76 795 -474 1485 -885 1623 -967 2446
-1458 2965 -1767 143 -85 485 -289 760 -453 275 -164 721 -429 990 -590 270
-161 646 -385 836 -498 191 -114 354 -209 362 -213 10 -3 153 75 379 207 200
116 525 306 723 422 198 115 385 224 415 242 30 19 294 173 585 343 866 505
3652 2132 4900 2862 380 222 780 456 890 520 110 64 646 377 1190 695 545 318
1229 718 1520 888 989 578 1779 1040 1985 1160 113 66 403 236 645 377 693
404 2363 1380 2885 1685 842 493 1478 864 1760 1028 151 88 276 161 278 163 5
3 -110 173 -181 269 -475 631 -1176 1062 -1907 1169 -58 8 -125 19 -150 23
-42 6 -31618 13 -31705 7z"/>
<path d="M6153 24398 c2 -9609 3 -10119 20 -10227 126 -813 436 -1451 962
-1976 497 -498 1093 -785 1770 -855 81 -8 4246 -10 15980 -8 l15870 4 140 26
c669 124 1227 431 1677 923 510 557 816 1261 887 2045 8 79 11 3181 11 10043
0 5460 -2 9927 -4 9927 -2 0 -93 -52 -202 -116 -319 -187 -1155 -675 -1894
-1107 -377 -220 -737 -430 -800 -467 -63 -38 -637 -373 -1275 -746 -1364 -796
-3564 -2081 -4330 -2529 -245 -143 -863 -504 -2850 -1665 -374 -218 -1229
-718 -1900 -1110 -671 -392 -1634 -955 -2140 -1250 -506 -296 -1134 -662
-1395 -815 -1340 -784 -1825 -1067 -1857 -1083 -19 -11 -44 1 -220 107 -109
65 -304 181 -433 258 -129 77 -471 281 -760 453 -289 172 -714 425 -945 563
-231 137 -451 269 -490 292 -38 23 -176 105 -305 182 -129 77 -352 210 -495
295 -143 85 -368 219 -500 298 -132 78 -355 211 -495 295 -140 84 -435 259
-655 390 -220 131 -443 264 -495 295 -52 32 -201 120 -330 197 -237 141 -808
481 -1720 1025 -1021 609 -1979 1179 -2410 1436 -245 145 -465 277 -490 292
-25 15 -268 160 -540 322 -1086 647 -1309 780 -1650 983 -195 117 -461 275
-590 352 -540 321 -1008 600 -1365 813 -336 201 -972 580 -1585 945 -254 151
-1700 1013 -1982 1181 -114 68 -210 124 -213 124 -3 0 -4 -4551 -2 -10112z"/>
</g>
</svg>
